<svg width="943" height="355" viewBox="0 0 943 355" fill="none" xmlns="http://www.w3.org/2000/svg">
<g clip-path="url(#clip0_71_97)">
<path d="M58.86 319.68H43.81C39.04 319.68 35.17 323.55 35.17 328.32C35.17 333.09 39.04 336.96 43.81 336.96H51.32C55.48 336.96 58.86 340.34 58.86 344.5V353.66H0V294.8H58.86V319.68Z" fill="black"/>
<path d="M59.1301 235.94H58.8701V294.8H73.1601V269.93C73.1601 265.76 76.5401 262.38 80.7101 262.38V287.2C80.7101 291.39 84.1101 294.8 88.3101 294.8H117.74V235.94H59.1401H59.1301Z" stroke="black" stroke-miterlimit="10"/>
<path d="M176.58 295.07V294.81H117.72V309.1H142.59C146.76 309.1 150.14 312.48 150.14 316.65H125.32C121.13 316.65 117.72 320.05 117.72 324.25V353.68H176.58V295.08V295.07Z" fill="black" stroke="black" stroke-miterlimit="10"/>
<path d="M210.56 353.66V338.61C210.56 333.84 206.69 329.97 201.92 329.97C197.15 329.97 193.28 333.84 193.28 338.61V346.12C193.28 350.28 189.9 353.66 185.74 353.66H176.58V294.8H235.44V353.66H210.56Z" stroke="black" stroke-miterlimit="10"/>
<path d="M176.58 278.11V235.94H157.95V265.12C157.95 271.26 152.83 276.2 146.62 275.91C140.81 275.64 136.34 270.63 136.34 264.81V235.94H117.71V294.8H176.57V278.11H176.58Z" fill="black" stroke="black" stroke-miterlimit="10"/>
<path d="M294.31 258.81C294.31 262.99 290.92 266.38 286.74 266.38H271.57C267.38 266.38 263.98 269.78 263.98 273.97V282.59H294.31V294.81H235.44V235.95H294.3V258.82" stroke="black" stroke-miterlimit="10"/>
<path d="M294.31 201.96H279.26C274.49 201.96 270.62 205.83 270.62 210.6C270.62 215.37 274.49 219.24 279.26 219.24H286.77C290.93 219.24 294.31 222.62 294.31 226.78V235.94H235.45V177.08H294.31V201.96Z" fill="black" stroke="black" stroke-miterlimit="10"/>
<path d="M176.58 176.82V177.08H235.44V162.79H210.57C206.4 162.79 203.02 159.41 203.02 155.24H227.84C232.03 155.24 235.44 151.84 235.44 147.64V118.21H176.58V176.81V176.82Z" stroke="black" stroke-miterlimit="10"/>
<path d="M117.72 84.24H132.77C137.54 84.24 141.41 88.11 141.41 92.88C141.41 97.65 137.54 101.52 132.77 101.52H125.26C121.1 101.52 117.72 104.9 117.72 109.06V118.22H176.58V59.36H117.72V84.24Z" fill="black" stroke="black" stroke-miterlimit="10"/>
<path d="M59.1301 118.22H58.8701V177.08H73.1601V152.21C73.1601 148.04 76.5401 144.66 80.7101 144.66V169.48C80.7101 173.67 84.1101 177.08 88.3101 177.08H117.74V118.22H59.1401H59.1301Z" fill="black" stroke="black" stroke-miterlimit="10"/>
<path d="M353.17 177.08V118.22H323.74C319.55 118.22 316.14 121.62 316.14 125.82V150.64C311.97 150.64 308.59 147.26 308.59 143.09V118.22H294.3V177.08H353.16H353.17Z" stroke="black" stroke-miterlimit="10"/>
<path d="M294.57 59.36H294.31V118.22H308.6V93.35C308.6 89.18 311.98 85.8 316.15 85.8V110.62C316.15 114.81 319.55 118.22 323.75 118.22H353.18V59.36H294.58H294.57Z" stroke="black" stroke-miterlimit="10"/>
<path d="M378.05 118.22V133.27C378.05 138.04 381.92 141.91 386.69 141.91C391.46 141.91 395.33 138.04 395.33 133.27V125.76C395.33 121.6 398.71 118.22 402.87 118.22H412.03V177.08H353.17V118.22H378.05Z" fill="black" stroke="black" stroke-miterlimit="10"/>
<path d="M412.03 177.35V177.09H353.17V191.38H378.04C382.21 191.38 385.59 194.76 385.59 198.93H360.77C356.58 198.93 353.17 202.33 353.17 206.53V235.96H412.03V177.36V177.35Z" stroke="black" stroke-miterlimit="10"/>
<path d="M387.15 294.8V279.75C387.15 274.98 383.28 271.11 378.51 271.11C373.74 271.11 369.87 274.98 369.87 279.75V287.26C369.87 291.42 366.49 294.8 362.33 294.8H353.17V235.94H412.03V294.8H387.15Z" fill="black" stroke="black" stroke-miterlimit="10"/>
<path d="M369.86 353.66H412.03V335.03H382.85C376.71 335.03 371.77 329.91 372.06 323.7C372.33 317.89 377.34 313.42 383.16 313.42H412.03V294.79H353.17V353.65H369.86V353.66Z" fill="black" stroke="black" stroke-miterlimit="10"/>
<path d="M454.2 294.8H412.03V313.43H441.21C447.35 313.43 452.29 318.55 452 324.76C451.73 330.57 446.72 335.04 440.9 335.04H412.03V353.67H470.89V294.81H454.2V294.8Z" fill="black" stroke="black" stroke-miterlimit="10"/>
<path d="M630.78 294.8H588.61V313.43H617.79C623.93 313.43 628.87 318.55 628.58 324.76C628.31 330.57 623.3 335.04 617.48 335.04H588.61V353.67H647.47V294.81H630.78V294.8Z" stroke="black" stroke-miterlimit="10"/>
<path d="M446.01 235.94V220.89C446.01 216.12 442.14 212.25 437.37 212.25C432.6 212.25 428.73 216.12 428.73 220.89V228.4C428.73 232.56 425.35 235.94 421.19 235.94H412.03V177.08H470.89V235.94H446.01Z" fill="black" stroke="black" stroke-miterlimit="10"/>
<path d="M495.77 235.94V250.99C495.77 255.76 499.64 259.63 504.41 259.63C509.18 259.63 513.05 255.76 513.05 250.99V243.48C513.05 239.32 516.43 235.94 520.59 235.94H529.75V294.8H470.89V235.94H495.77Z" stroke="black" stroke-miterlimit="10"/>
<path d="M470.89 176.82V177.08H529.75V162.79H504.88C500.71 162.79 497.33 159.41 497.33 155.24H522.15C526.34 155.24 529.75 151.84 529.75 147.64V118.21H470.89V176.81V176.82Z" fill="black" stroke="black" stroke-miterlimit="10"/>
<path d="M588.61 118.22H529.75V147.65C529.75 151.84 533.15 155.25 537.35 155.25H562.17C562.17 159.42 558.79 162.8 554.62 162.8H529.75V177.09H588.61C588.61 177.09 588.61 177 588.61 176.83C588.61 172.56 588.61 118.23 588.61 118.23V118.22Z" fill="black" stroke="black" stroke-miterlimit="10"/>
<path d="M529.75 211.06H544.8C549.57 211.06 553.44 207.19 553.44 202.42C553.44 197.65 549.57 193.78 544.8 193.78H537.29C533.13 193.78 529.75 190.4 529.75 186.24V177.08H588.61V235.94H529.75V211.06Z" stroke="black" stroke-miterlimit="10"/>
<path d="M588.62 258.81C588.62 262.99 585.23 266.38 581.05 266.38H565.88C561.69 266.38 558.29 269.78 558.29 273.97V282.59H588.62V294.81H529.75V235.95H588.61V258.82" fill="black"/>
<path d="M588.62 258.81C588.62 262.99 585.23 266.38 581.05 266.38H565.88C561.69 266.38 558.29 269.78 558.29 273.97V282.59H588.62V294.81H529.75V235.95H588.61V258.82" stroke="black" stroke-miterlimit="10"/>
<path d="M565.74 353.67C561.56 353.67 558.17 350.28 558.17 346.1V330.93C558.17 326.74 554.77 323.34 550.58 323.34H541.96V353.67H529.74V294.8H588.6V353.66H565.73" fill="black"/>
<path d="M565.74 353.67C561.56 353.67 558.17 350.28 558.17 346.1V330.93C558.17 326.74 554.77 323.34 550.58 323.34H541.96V353.67H529.74V294.8H588.6V353.66H565.73" stroke="black" stroke-miterlimit="10"/>
<path d="M706.33 236.21V235.95H647.47V250.24H672.34C676.51 250.24 679.89 253.62 679.89 257.79H655.07C650.88 257.79 647.47 261.19 647.47 265.39V294.82H706.33V236.22V236.21Z" fill="black" stroke="black" stroke-miterlimit="10"/>
<path d="M647.74 177.08H647.48V235.94H661.77V211.07C661.77 206.9 665.15 203.52 669.32 203.52V228.34C669.32 232.53 672.72 235.94 676.92 235.94H706.35V177.08H647.75H647.74Z" stroke="black" stroke-miterlimit="10"/>
<path d="M824.05 201.96H809C804.23 201.96 800.36 205.83 800.36 210.6C800.36 215.37 804.23 219.24 809 219.24H816.51C820.67 219.24 824.05 222.62 824.05 226.78V235.94H765.19V177.08H824.05V201.96Z" fill="black" stroke="black" stroke-miterlimit="10"/>
<path d="M799.17 294.8V279.75C799.17 274.98 795.3 271.11 790.53 271.11C785.76 271.11 781.89 274.98 781.89 279.75V287.26C781.89 291.42 778.51 294.8 774.35 294.8H765.19V235.94H824.05V294.8H799.17Z" stroke="black" stroke-miterlimit="10"/>
<path d="M824.05 143.1H809C804.23 143.1 800.36 146.97 800.36 151.74C800.36 156.51 804.23 160.38 809 160.38H816.51C820.67 160.38 824.05 163.76 824.05 167.92V177.08H765.19V118.22H824.05V143.1Z" stroke="black" stroke-miterlimit="10"/>
<path d="M824.05 201.96H839.1C843.87 201.96 847.74 205.83 847.74 210.6C847.74 215.37 843.87 219.24 839.1 219.24H831.59C827.43 219.24 824.05 222.62 824.05 226.78V235.94H882.91V177.08H824.05V201.96Z" fill="black" stroke="black" stroke-miterlimit="10"/>
<path d="M740.31 177.08V162.03C740.31 157.26 736.44 153.39 731.67 153.39C726.9 153.39 723.03 157.26 723.03 162.03V169.54C723.03 173.7 719.65 177.08 715.49 177.08H706.33V118.22H765.19V177.08H740.31Z" stroke="black" stroke-miterlimit="10"/>
<path d="M731.21 59.36V74.41C731.21 79.18 735.08 83.05 739.85 83.05C744.62 83.05 748.49 79.18 748.49 74.41V66.9C748.49 62.74 751.87 59.36 756.03 59.36H765.19V118.22H706.33V59.36H731.21Z" fill="black" stroke="black" stroke-miterlimit="10"/>
<path d="M731.21 59.36V44.31C731.21 39.54 735.08 35.67 739.85 35.67C744.62 35.67 748.49 39.54 748.49 44.31V51.82C748.49 55.98 751.87 59.36 756.03 59.36H765.19V0.5H706.33V59.36H731.21Z" fill="black" stroke="black" stroke-miterlimit="10"/>
<path d="M882.92 317.67C882.92 321.85 879.53 325.24 875.35 325.24H860.18C855.99 325.24 852.59 328.64 852.59 332.83V341.45H882.92V353.67H824.05V294.81H882.91V317.68" fill="black"/>
<path d="M882.92 317.67C882.92 321.85 879.53 325.24 875.35 325.24H860.18C855.99 325.24 852.59 328.64 852.59 332.83V341.45H882.92V353.67H824.05V294.81H882.91V317.68" stroke="black" stroke-miterlimit="10"/>
<path d="M925.09 118.22H882.92V136.85H912.1C918.24 136.85 923.18 141.97 922.89 148.18C922.62 153.99 917.61 158.46 911.79 158.46H882.92V177.09H941.78V118.23H925.09V118.22Z" fill="black" stroke="black" stroke-miterlimit="10"/>
<path d="M907.79 59.36V74.41C907.79 79.18 911.66 83.05 916.43 83.05C921.2 83.05 925.07 79.18 925.07 74.41V66.9C925.07 62.74 928.45 59.36 932.61 59.36H941.77V118.22H882.91V59.36H907.79Z" stroke="black" stroke-miterlimit="10"/>
<path d="M925.09 0.5H882.92V19.13H912.1C918.24 19.13 923.18 24.25 922.89 30.46C922.62 36.27 917.61 40.74 911.79 40.74H882.92V59.37H941.78V0.5H925.09Z" fill="black" stroke="black" stroke-miterlimit="10"/>
</g>
<defs>
<clipPath id="clip0_71_97">
<rect width="942.28" height="354.17" fill="white"/>
</clipPath>
</defs>
</svg>
